<?xml version="1.0" encoding="UTF-8"?>
<mxfile host="app.diagrams.net" modified="2025-08-25T17:25:28.633Z" agent="5.0" etag="draw.io" version="24.7.17">
  <diagram name="Bedrock-Only-Agentic-Workflow" id="bedrock-agentic">
    <mxGraphModel dx="1400" dy="800" grid="1" gridSize="10" guides="1" tooltips="1" connect="1" arrows="1" fold="1" page="1" pageScale="1" pageWidth="1200" pageHeight="900" math="0" shadow="0">
      <root>
        <mxCell id="0" />
        <mxCell id="1" parent="0" />
        
        <!-- Title -->
        <mxCell id="title" value="Bedrock-Only Agentic AI Quotation Workflow" style="text;html=1;strokeColor=none;fillColor=none;align=center;verticalAlign=middle;whiteSpace=wrap;rounded=0;fontSize=20;fontStyle=1;fontColor=#116D5B;" vertex="1" parent="1">
          <mxGeometry x="350" y="20" width="500" height="40" as="geometry" />
        </mxCell>
        
        <!-- Email Input -->
        <mxCell id="email-input" value="📧 Email with&#xa;Quotation Attachment" style="rounded=1;whiteSpace=wrap;html=1;fillColor=#E3F2FD;strokeColor=#1976D2;fontSize=12;fontStyle=1;" vertex="1" parent="1">
          <mxGeometry x="50" y="100" width="120" height="60" as="geometry" />
        </mxCell>
        
        <!-- SES Email Receiver -->
        <mxCell id="ses" value="Amazon SES&#xa;Email Receiver" style="sketch=0;points=[[0,0,0],[0.25,0,0],[0.5,0,0],[0.75,0,0],[1,0,0],[0,1,0],[0.25,1,0],[0.5,1,0],[0.75,1,0],[1,1,0],[0,0.25,0],[0,0.5,0],[0,0.75,0],[1,0.25,0],[1,0.5,0],[1,0.75,0]];outlineConnect=0;fontColor=#232F3E;gradientColor=#F54749;gradientDirection=north;fillColor=#C7131F;strokeColor=#ffffff;dashed=0;verticalLabelPosition=bottom;verticalAlign=top;align=center;html=1;fontSize=10;fontStyle=0;aspect=fixed;shape=mxgraph.aws4.resourceIcon;resIcon=mxgraph.aws4.simple_email_service;" vertex="1" parent="1">
          <mxGeometry x="250" y="100" width="60" height="60" as="geometry" />
        </mxCell>
        
        <!-- Lambda Trigger -->
        <mxCell id="lambda-trigger" value="Lambda&#xa;Email Parser" style="sketch=0;points=[[0,0,0],[0.25,0,0],[0.5,0,0],[0.75,0,0],[1,0,0],[0,1,0],[0.25,1,0],[0.5,1,0],[0.75,1,0],[1,1,0],[0,0.25,0],[0,0.5,0],[0,0.75,0],[1,0.25,0],[1,0.5,0],[1,0.75,0]];outlineConnect=0;fontColor=#232F3E;gradientColor=#F78E04;gradientDirection=north;fillColor=#D05C17;strokeColor=#ffffff;dashed=0;verticalLabelPosition=bottom;verticalAlign=top;align=center;html=1;fontSize=10;fontStyle=0;aspect=fixed;shape=mxgraph.aws4.resourceIcon;resIcon=mxgraph.aws4.lambda;" vertex="1" parent="1">
          <mxGeometry x="400" y="100" width="60" height="60" as="geometry" />
        </mxCell>
        
        <!-- Bedrock Agent Orchestrator -->
        <mxCell id="bedrock-agent" value="Bedrock Agent&#xa;Orchestrator" style="sketch=0;points=[[0,0,0],[0.25,0,0],[0.5,0,0],[0.75,0,0],[1,0,0],[0,1,0],[0.25,1,0],[0.5,1,0],[0.75,1,0],[1,1,0],[0,0.25,0],[0,0.5,0],[0,0.75,0],[1,0.25,0],[1,0.5,0],[1,0.75,0]];outlineConnect=0;fontColor=#232F3E;gradientColor=#4AB29A;gradientDirection=north;fillColor=#116D5B;strokeColor=#ffffff;dashed=0;verticalLabelPosition=bottom;verticalAlign=top;align=center;html=1;fontSize=12;fontStyle=1;aspect=fixed;shape=mxgraph.aws4.resourceIcon;resIcon=mxgraph.aws4.bedrock;" vertex="1" parent="1">
          <mxGeometry x="550" y="90" width="80" height="80" as="geometry" />
        </mxCell>
        
        <!-- Bedrock Models Section -->
        <mxCell id="models-section" value="Bedrock AI Models" style="rounded=1;whiteSpace=wrap;html=1;fillColor=#E8F5E8;strokeColor=#4CAF50;fontSize=14;fontStyle=1;verticalAlign=top;spacingTop=10;" vertex="1" parent="1">
          <mxGeometry x="50" y="220" width="700" height="120" as="geometry" />
        </mxCell>
        
        <!-- Claude for Analysis -->
        <mxCell id="claude-analyzer" value="Claude 3.5 Sonnet&#xa;Document Analyzer" style="sketch=0;points=[[0,0,0],[0.25,0,0],[0.5,0,0],[0.75,0,0],[1,0,0],[0,1,0],[0.25,1,0],[0.5,1,0],[0.75,1,0],[1,1,0],[0,0.25,0],[0,0.5,0],[0,0.75,0],[1,0.25,0],[1,0.5,0],[1,0.75,0]];outlineConnect=0;fontColor=#232F3E;gradientColor=#4AB29A;gradientDirection=north;fillColor=#116D5B;strokeColor=#ffffff;dashed=0;verticalLabelPosition=bottom;verticalAlign=top;align=center;html=1;fontSize=10;fontStyle=0;aspect=fixed;shape=mxgraph.aws4.resourceIcon;resIcon=mxgraph.aws4.bedrock;" vertex="1" parent="1">
          <mxGeometry x="80" y="260" width="60" height="60" as="geometry" />
        </mxCell>
        
        <!-- Claude for Classification -->
        <mxCell id="claude-classifier" value="Claude 3.5 Sonnet&#xa;Priority Classifier" style="sketch=0;points=[[0,0,0],[0.25,0,0],[0.5,0,0],[0.75,0,0],[1,0,0],[0,1,0],[0.25,1,0],[0.5,1,0],[0.75,1,0],[1,1,0],[0,0.25,0],[0,0.5,0],[0,0.75,0],[1,0.25,0],[1,0.5,0],[1,0.75,0]];outlineConnect=0;fontColor=#232F3E;gradientColor=#4AB29A;gradientDirection=north;fillColor=#116D5B;strokeColor=#ffffff;dashed=0;verticalLabelPosition=bottom;verticalAlign=top;align=center;html=1;fontSize=10;fontStyle=0;aspect=fixed;shape=mxgraph.aws4.resourceIcon;resIcon=mxgraph.aws4.bedrock;" vertex="1" parent="1">
          <mxGeometry x="200" y="260" width="60" height="60" as="geometry" />
        </mxCell>
        
        <!-- Claude for Decision Making -->
        <mxCell id="claude-decision" value="Claude 3.5 Sonnet&#xa;Decision Engine" style="sketch=0;points=[[0,0,0],[0.25,0,0],[0.5,0,0],[0.75,0,0],[1,0,0],[0,1,0],[0.25,1,0],[0.5,1,0],[0.75,1,0],[1,1,0],[0,0.25,0],[0,0.5,0],[0,0.75,0],[1,0.25,0],[1,0.5,0],[1,0.75,0]];outlineConnect=0;fontColor=#232F3E;gradientColor=#4AB29A;gradientDirection=north;fillColor=#116D5B;strokeColor=#ffffff;dashed=0;verticalLabelPosition=bottom;verticalAlign=top;align=center;html=1;fontSize=10;fontStyle=0;aspect=fixed;shape=mxgraph.aws4.resourceIcon;resIcon=mxgraph.aws4.bedrock;" vertex="1" parent="1">
          <mxGeometry x="320" y="260" width="60" height="60" as="geometry" />
        </mxCell>
        
        <!-- Claude for PO Generation -->
        <mxCell id="claude-generator" value="Claude 3.5 Sonnet&#xa;PO Generator" style="sketch=0;points=[[0,0,0],[0.25,0,0],[0.5,0,0],[0.75,0,0],[1,0,0],[0,1,0],[0.25,1,0],[0.5,1,0],[0.75,1,0],[1,1,0],[0,0.25,0],[0,0.5,0],[0,0.75,0],[1,0.25,0],[1,0.5,0],[1,0.75,0]];outlineConnect=0;fontColor=#232F3E;gradientColor=#4AB29A;gradientDirection=north;fillColor=#116D5B;strokeColor=#ffffff;dashed=0;verticalLabelPosition=bottom;verticalAlign=top;align=center;html=1;fontSize=10;fontStyle=0;aspect=fixed;shape=mxgraph.aws4.resourceIcon;resIcon=mxgraph.aws4.bedrock;" vertex="1" parent="1">
          <mxGeometry x="440" y="260" width="60" height="60" as="geometry" />
        </mxCell>
        
        <!-- Claude for Communication -->
        <mxCell id="claude-communicator" value="Claude 3.5 Sonnet&#xa;Email Composer" style="sketch=0;points=[[0,0,0],[0.25,0,0],[0.5,0,0],[0.75,0,0],[1,0,0],[0,1,0],[0.25,1,0],[0.5,1,0],[0.75,1,0],[1,1,0],[0,0.25,0],[0,0.5,0],[0,0.75,0],[1,0.25,0],[1,0.5,0],[1,0.75,0]];outlineConnect=0;fontColor=#232F3E;gradientColor=#4AB29A;gradientDirection=north;fillColor=#116D5B;strokeColor=#ffffff;dashed=0;verticalLabelPosition=bottom;verticalAlign=top;align=center;html=1;fontSize=10;fontStyle=0;aspect=fixed;shape=mxgraph.aws4.resourceIcon;resIcon=mxgraph.aws4.bedrock;" vertex="1" parent="1">
          <mxGeometry x="560" y="260" width="60" height="60" as="geometry" />
        </mxCell>
        
        <!-- Bedrock Knowledge Base -->
        <mxCell id="knowledge-base" value="Bedrock Knowledge Base&#xa;Company Policies &amp; Vendors" style="sketch=0;points=[[0,0,0],[0.25,0,0],[0.5,0,0],[0.75,0,0],[1,0,0],[0,1,0],[0.25,1,0],[0.5,1,0],[0.75,1,0],[1,1,0],[0,0.25,0],[0,0.5,0],[0,0.75,0],[1,0.25,0],[1,0.5,0],[1,0.75,0]];outlineConnect=0;fontColor=#232F3E;gradientColor=#4AB29A;gradientDirection=north;fillColor=#116D5B;strokeColor=#ffffff;dashed=0;verticalLabelPosition=bottom;verticalAlign=top;align=center;html=1;fontSize=10;fontStyle=0;aspect=fixed;shape=mxgraph.aws4.resourceIcon;resIcon=mxgraph.aws4.bedrock;" vertex="1" parent="1">
          <mxGeometry x="680" y="260" width="60" height="60" as="geometry" />
        </mxCell>
        
        <!-- Decision Flow -->
        <mxCell id="decision-section" value="AI Decision Flow" style="rounded=1;whiteSpace=wrap;html=1;fillColor=#FFF3E0;strokeColor=#F57C00;fontSize=14;fontStyle=1;verticalAlign=top;spacingTop=10;" vertex="1" parent="1">
          <mxGeometry x="50" y="380" width="700" height="120" as="geometry" />
        </mxCell>
        
        <!-- Decision Points -->
        <mxCell id="urgent-check" value="Urgent&#xa;Request?" style="rhombus;whiteSpace=wrap;html=1;fillColor=#FFECB3;strokeColor=#FF9800;fontSize=10;" vertex="1" parent="1">
          <mxGeometry x="100" y="420" width="60" height="60" as="geometry" />
        </mxCell>
        
        <mxCell id="vendor-check" value="Known&#xa;Vendor?" style="rhombus;whiteSpace=wrap;html=1;fillColor=#FFECB3;strokeColor=#FF9800;fontSize=10;" vertex="1" parent="1">
          <mxGeometry x="220" y="420" width="60" height="60" as="geometry" />
        </mxCell>
        
        <mxCell id="budget-check" value="Within&#xa;Budget?" style="rhombus;whiteSpace=wrap;html=1;fillColor=#FFECB3;strokeColor=#FF9800;fontSize=10;" vertex="1" parent="1">
          <mxGeometry x="340" y="420" width="60" height="60" as="geometry" />
        </mxCell>
        
        <mxCell id="approval-check" value="Auto&#xa;Approve?" style="rhombus;whiteSpace=wrap;html=1;fillColor=#FFECB3;strokeColor=#FF9800;fontSize=10;" vertex="1" parent="1">
          <mxGeometry x="460" y="420" width="60" height="60" as="geometry" />
        </mxCell>
        
        <mxCell id="negotiate-check" value="Negotiate&#xa;Terms?" style="rhombus;whiteSpace=wrap;html=1;fillColor=#FFECB3;strokeColor=#FF9800;fontSize=10;" vertex="1" parent="1">
          <mxGeometry x="580" y="420" width="60" height="60" as="geometry" />
        </mxCell>
        
        <!-- Actions -->
        <mxCell id="actions-section" value="Automated Actions" style="rounded=1;whiteSpace=wrap;html=1;fillColor=#E1F5FE;strokeColor=#0277BD;fontSize=14;fontStyle=1;verticalAlign=top;spacingTop=10;" vertex="1" parent="1">
          <mxGeometry x="50" y="540" width="700" height="100" as="geometry" />
        </mxCell>
        
        <mxCell id="auto-approve" value="✅ Auto&#xa;Approve" style="rounded=1;whiteSpace=wrap;html=1;fillColor=#C8E6C9;strokeColor=#4CAF50;fontSize=10;" vertex="1" parent="1">
          <mxGeometry x="80" y="580" width="60" height="40" as="geometry" />
        </mxCell>
        
        <mxCell id="escalate" value="⚠️ Escalate to&#xa;Manager" style="rounded=1;whiteSpace=wrap;html=1;fillColor=#FFECB3;strokeColor=#FF9800;fontSize=10;" vertex="1" parent="1">
          <mxGeometry x="180" y="580" width="60" height="40" as="geometry" />
        </mxCell>
        
        <mxCell id="negotiate" value="💬 Auto&#xa;Negotiate" style="rounded=1;whiteSpace=wrap;html=1;fillColor=#E1BEE7;strokeColor=#9C27B0;fontSize=10;" vertex="1" parent="1">
          <mxGeometry x="280" y="580" width="60" height="40" as="geometry" />
        </mxCell>
        
        <mxCell id="generate-po" value="📄 Generate&#xa;PO" style="rounded=1;whiteSpace=wrap;html=1;fillColor=#B3E5FC;strokeColor=#03A9F4;fontSize=10;" vertex="1" parent="1">
          <mxGeometry x="380" y="580" width="60" height="40" as="geometry" />
        </mxCell>
        
        <mxCell id="send-email" value="📧 Send&#xa;Response" style="rounded=1;whiteSpace=wrap;html=1;fillColor=#F8BBD9;strokeColor=#E91E63;fontSize=10;" vertex="1" parent="1">
          <mxGeometry x="480" y="580" width="60" height="40" as="geometry" />
        </mxCell>
        
        <mxCell id="schedule-meeting" value="📅 Schedule&#xa;Meeting" style="rounded=1;whiteSpace=wrap;html=1;fillColor=#FFCDD2;strokeColor=#F44336;fontSize=10;" vertex="1" parent="1">
          <mxGeometry x="580" y="580" width="60" height="40" as="geometry" />
        </mxCell>
        
        <mxCell id="update-records" value="💾 Update&#xa;Records" style="rounded=1;whiteSpace=wrap;html=1;fillColor=#D1C4E9;strokeColor=#673AB7;fontSize=10;" vertex="1" parent="1">
          <mxGeometry x="680" y="580" width="60" height="40" as="geometry" />
        </mxCell>
        
        <!-- Storage -->
        <mxCell id="s3-storage" value="S3 Bucket&#xa;Documents" style="sketch=0;points=[[0,0,0],[0.25,0,0],[0.5,0,0],[0.75,0,0],[1,0,0],[0,1,0],[0.25,1,0],[0.5,1,0],[0.75,1,0],[1,1,0],[0,0.25,0],[0,0.5,0],[0,0.75,0],[1,0.25,0],[1,0.5,0],[1,0.75,0]];outlineConnect=0;fontColor=#232F3E;gradientColor=#60A337;gradientDirection=north;fillColor=#277116;strokeColor=#ffffff;dashed=0;verticalLabelPosition=bottom;verticalAlign=top;align=center;html=1;fontSize=10;fontStyle=0;aspect=fixed;shape=mxgraph.aws4.resourceIcon;resIcon=mxgraph.aws4.s3;" vertex="1" parent="1">
          <mxGeometry x="850" y="100" width="60" height="60" as="geometry" />
        </mxCell>
        
        <mxCell id="dynamodb" value="DynamoDB&#xa;Quotations" style="sketch=0;points=[[0,0,0],[0.25,0,0],[0.5,0,0],[0.75,0,0],[1,0,0],[0,1,0],[0.25,1,0],[0.5,1,0],[0.75,1,0],[1,1,0],[0,0.25,0],[0,0.5,0],[0,0.75,0],[1,0.25,0],[1,0.5,0],[1,0.75,0]];outlineConnect=0;fontColor=#232F3E;gradientColor=#4D72F3;gradientDirection=north;fillColor=#3334B9;strokeColor=#ffffff;dashed=0;verticalLabelPosition=bottom;verticalAlign=top;align=center;html=1;fontSize=10;fontStyle=0;aspect=fixed;shape=mxgraph.aws4.resourceIcon;resIcon=mxgraph.aws4.dynamodb;" vertex="1" parent="1">
          <mxGeometry x="850" y="200" width="60" height="60" as="geometry" />
        </mxCell>
        
        <!-- Workflow Connections -->
        
        <!-- Email Flow -->
        <mxCell id="conn1" value="Email" style="endArrow=classic;html=1;rounded=0;strokeColor=#1976D2;strokeWidth=2;" edge="1" parent="1" source="email-input" target="ses">
          <mxGeometry width="50" height="50" relative="1" as="geometry">
            <mxPoint x="180" y="130" as="sourcePoint" />
            <mxPoint x="240" y="130" as="targetPoint" />
          </mxGeometry>
        </mxCell>
        
        <mxCell id="conn2" value="Trigger" style="endArrow=classic;html=1;rounded=0;strokeColor=#1976D2;strokeWidth=2;" edge="1" parent="1" source="ses" target="lambda-trigger">
          <mxGeometry width="50" height="50" relative="1" as="geometry">
            <mxPoint x="320" y="130" as="sourcePoint" />
            <mxPoint x="390" y="130" as="targetPoint" />
          </mxGeometry>
        </mxCell>
        
        <mxCell id="conn3" value="Invoke Agent" style="endArrow=classic;html=1;rounded=0;strokeColor=#116D5B;strokeWidth=3;" edge="1" parent="1" source="lambda-trigger" target="bedrock-agent">
          <mxGeometry width="50" height="50" relative="1" as="geometry">
            <mxPoint x="470" y="130" as="sourcePoint" />
            <mxPoint x="540" y="130" as="targetPoint" />
          </mxGeometry>
        </mxCell>
        
        <!-- Bedrock Agent to Models -->
        <mxCell id="conn4" value="Analyze" style="endArrow=classic;html=1;rounded=0;strokeColor=#4CAF50;strokeWidth=2;" edge="1" parent="1" source="bedrock-agent" target="claude-analyzer">
          <mxGeometry width="50" height="50" relative="1" as="geometry">
            <mxPoint x="590" y="180" as="sourcePoint" />
            <mxPoint x="120" y="250" as="targetPoint" />
          </mxGeometry>
        </mxCell>
        
        <mxCell id="conn5" value="Classify" style="endArrow=classic;html=1;rounded=0;strokeColor=#4CAF50;strokeWidth=2;" edge="1" parent="1" source="bedrock-agent" target="claude-classifier">
          <mxGeometry width="50" height="50" relative="1" as="geometry">
            <mxPoint x="590" y="180" as="sourcePoint" />
            <mxPoint x="240" y="250" as="targetPoint" />
          </mxGeometry>
        </mxCell>
        
        <mxCell id="conn6" value="Decide" style="endArrow=classic;html=1;rounded=0;strokeColor=#4CAF50;strokeWidth=2;" edge="1" parent="1" source="bedrock-agent" target="claude-decision">
          <mxGeometry width="50" height="50" relative="1" as="geometry">
            <mxPoint x="590" y="180" as="sourcePoint" />
            <mxPoint x="360" y="250" as="targetPoint" />
          </mxGeometry>
        </mxCell>
        
        <mxCell id="conn7" value="Generate" style="endArrow=classic;html=1;rounded=0;strokeColor=#4CAF50;strokeWidth=2;" edge="1" parent="1" source="bedrock-agent" target="claude-generator">
          <mxGeometry width="50" height="50" relative="1" as="geometry">
            <mxPoint x="590" y="180" as="sourcePoint" />
            <mxPoint x="480" y="250" as="targetPoint" />
          </mxGeometry>
        </mxCell>
        
        <mxCell id="conn8" value="Compose" style="endArrow=classic;html=1;rounded=0;strokeColor=#4CAF50;strokeWidth=2;" edge="1" parent="1" source="bedrock-agent" target="claude-communicator">
          <mxGeometry width="50" height="50" relative="1" as="geometry">
            <mxPoint x="590" y="180" as="sourcePoint" />
            <mxPoint x="600" y="250" as="targetPoint" />
          </mxGeometry>
        </mxCell>
        
        <mxCell id="conn9" value="Query KB" style="endArrow=classic;html=1;rounded=0;strokeColor=#4CAF50;strokeWidth=2;" edge="1" parent="1" source="bedrock-agent" target="knowledge-base">
          <mxGeometry width="50" height="50" relative="1" as="geometry">
            <mxPoint x="630" y="180" as="sourcePoint" />
            <mxPoint x="710" y="250" as="targetPoint" />
          </mxGeometry>
        </mxCell>
        
        <!-- Decision Flow -->
        <mxCell id="conn10" value="Evaluate" style="endArrow=classic;html=1;rounded=0;strokeColor=#F57C00;strokeWidth=2;" edge="1" parent="1" source="claude-decision" target="urgent-check">
          <mxGeometry width="50" height="50" relative="1" as="geometry">
            <mxPoint x="350" y="330" as="sourcePoint" />
            <mxPoint x="130" y="410" as="targetPoint" />
          </mxGeometry>
        </mxCell>
        
        <mxCell id="conn11" value="" style="endArrow=classic;html=1;rounded=0;strokeColor=#F57C00;strokeWidth=2;" edge="1" parent="1" source="urgent-check" target="vendor-check">
          <mxGeometry width="50" height="50" relative="1" as="geometry">
            <mxPoint x="170" y="450" as="sourcePoint" />
            <mxPoint x="210" y="450" as="targetPoint" />
          </mxGeometry>
        </mxCell>
        
        <mxCell id="conn12" value="" style="endArrow=classic;html=1;rounded=0;strokeColor=#F57C00;strokeWidth=2;" edge="1" parent="1" source="vendor-check" target="budget-check">
          <mxGeometry width="50" height="50" relative="1" as="geometry">
            <mxPoint x="290" y="450" as="sourcePoint" />
            <mxPoint x="330" y="450" as="targetPoint" />
          </mxGeometry>
        </mxCell>
        
        <mxCell id="conn13" value="" style="endArrow=classic;html=1;rounded=0;strokeColor=#F57C00;strokeWidth=2;" edge="1" parent="1" source="budget-check" target="approval-check">
          <mxGeometry width="50" height="50" relative="1" as="geometry">
            <mxPoint x="410" y="450" as="sourcePoint" />
            <mxPoint x="450" y="450" as="targetPoint" />
          </mxGeometry>
        </mxCell>
        
        <mxCell id="conn14" value="" style="endArrow=classic;html=1;rounded=0;strokeColor=#F57C00;strokeWidth=2;" edge="1" parent="1" source="approval-check" target="negotiate-check">
          <mxGeometry width="50" height="50" relative="1" as="geometry">
            <mxPoint x="530" y="450" as="sourcePoint" />
            <mxPoint x="570" y="450" as="targetPoint" />
          </mxGeometry>
        </mxCell>
        
        <!-- Decision to Actions -->
        <mxCell id="conn15" value="Yes" style="endArrow=classic;html=1;rounded=0;strokeColor=#4CAF50;strokeWidth=2;" edge="1" parent="1" source="approval-check" target="auto-approve">
          <mxGeometry width="50" height="50" relative="1" as="geometry">
            <mxPoint x="490" y="490" as="sourcePoint" />
            <mxPoint x="110" y="570" as="targetPoint" />
          </mxGeometry>
        </mxCell>
        
        <mxCell id="conn16" value="No" style="endArrow=classic;html=1;rounded=0;strokeColor=#FF9800;strokeWidth=2;" edge="1" parent="1" source="budget-check" target="escalate">
          <mxGeometry width="50" height="50" relative="1" as="geometry">
            <mxPoint x="370" y="490" as="sourcePoint" />
            <mxPoint x="210" y="570" as="targetPoint" />
          </mxGeometry>
        </mxCell>
        
        <mxCell id="conn17" value="Yes" style="endArrow=classic;html=1;rounded=0;strokeColor=#9C27B0;strokeWidth=2;" edge="1" parent="1" source="negotiate-check" target="negotiate">
          <mxGeometry width="50" height="50" relative="1" as="geometry">
            <mxPoint x="610" y="490" as="sourcePoint" />
            <mxPoint x="310" y="570" as="targetPoint" />
          </mxGeometry>
        </mxCell>
        
        <!-- Actions to Storage -->
        <mxCell id="conn18" value="Store" style="endArrow=classic;html=1;rounded=0;strokeColor=#277116;strokeWidth=2;" edge="1" parent="1" source="generate-po" target="s3-storage">
          <mxGeometry width="50" height="50" relative="1" as="geometry">
            <mxPoint x="450" y="580" as="sourcePoint" />
            <mxPoint x="840" y="130" as="targetPoint" />
          </mxGeometry>
        </mxCell>
        
        <mxCell id="conn19" value="Save" style="endArrow=classic;html=1;rounded=0;strokeColor=#3334B9;strokeWidth=2;" edge="1" parent="1" source="update-records" target="dynamodb">
          <mxGeometry width="50" height="50" relative="1" as="geometry">
            <mxPoint x="750" y="600" as="sourcePoint" />
            <mxPoint x="840" y="230" as="targetPoint" />
          </mxGeometry>
        </mxCell>
        
        <!-- Features and Benefits -->
        <mxCell id="features-box" value="🤖 Bedrock-Only Features:&#xa;&#xa;• Single AI service architecture&#xa;• Claude 3.5 Sonnet for all tasks&#xa;• Bedrock Agent orchestration&#xa;• Knowledge Base integration&#xa;• Simplified deployment&#xa;• Cost-effective solution&#xa;• Unified AI reasoning&#xa;• Consistent responses&#xa;• Easy maintenance&#xa;• Scalable processing" style="text;html=1;strokeColor=#116D5B;fillColor=#E8F5E8;align=left;verticalAlign=top;whiteSpace=wrap;rounded=1;fontSize=11;fontStyle=0;spacing=8;" vertex="1" parent="1">
          <mxGeometry x="950" y="100" width="200" height="200" as="geometry" />
        </mxCell>
        
        <mxCell id="workflow-box" value="🔄 Workflow Steps:&#xa;&#xa;1. Email triggers Lambda&#xa;2. Bedrock Agent orchestrates&#xa;3. Claude analyzes document&#xa;4. Claude classifies priority&#xa;5. Claude makes decisions&#xa;6. Claude generates PO&#xa;7. Claude composes responses&#xa;8. Knowledge Base provides context&#xa;9. Actions executed automatically&#xa;10. Results stored in AWS" style="text;html=1;strokeColor=#F57C00;fillColor=#FFF3E0;align=left;verticalAlign=top;whiteSpace=wrap;rounded=1;fontSize=11;fontStyle=0;spacing=8;" vertex="1" parent="1">
          <mxGeometry x="950" y="340" width="200" height="200" as="geometry" />
        </mxCell>
        
        <!-- Process Labels -->
        <mxCell id="label1" value="1. Email Trigger" style="text;html=1;strokeColor=none;fillColor=#E3F2FD;align=center;verticalAlign=middle;whiteSpace=wrap;rounded=1;fontSize=10;fontStyle=1;" vertex="1" parent="1">
          <mxGeometry x="200" y="70" width="80" height="25" as="geometry" />
        </mxCell>
        
        <mxCell id="label2" value="2. AI Orchestration" style="text;html=1;strokeColor=none;fillColor=#E8F5E8;align=center;verticalAlign=middle;whiteSpace=wrap;rounded=1;fontSize=10;fontStyle=1;" vertex="1" parent="1">
          <mxGeometry x="540" y="50" width="100" height="25" as="geometry" />
        </mxCell>
        
        <mxCell id="label3" value="3. Multi-Model Processing" style="text;html=1;strokeColor=none;fillColor=#E8F5E8;align=center;verticalAlign=middle;whiteSpace=wrap;rounded=1;fontSize=10;fontStyle=1;" vertex="1" parent="1">
          <mxGeometry x="350" y="190" width="120" height="25" as="geometry" />
        </mxCell>
        
        <mxCell id="label4" value="4. Intelligent Decisions" style="text;html=1;strokeColor=none;fillColor=#FFF3E0;align=center;verticalAlign=middle;whiteSpace=wrap;rounded=1;fontSize=10;fontStyle=1;" vertex="1" parent="1">
          <mxGeometry x="320" y="350" width="100" height="25" as="geometry" />
        </mxCell>
        
        <mxCell id="label5" value="5. Automated Actions" style="text;html=1;strokeColor=none;fillColor=#E1F5FE;align=center;verticalAlign=middle;whiteSpace=wrap;rounded=1;fontSize=10;fontStyle=1;" vertex="1" parent="1">
          <mxGeometry x="350" y="510" width="100" height="25" as="geometry" />
        </mxCell>
        
        <!-- Benefits Box -->
        <mxCell id="benefits-box" value="💰 Cost Benefits:&#xa;&#xa;• Single service billing&#xa;• No multi-service complexity&#xa;• Reduced data transfer costs&#xa;• Simplified monitoring&#xa;• Lower operational overhead&#xa;• Unified security model&#xa;• Streamlined compliance&#xa;• Faster development&#xa;• Easier troubleshooting&#xa;• Predictable pricing" style="text;html=1;strokeColor=#0277BD;fillColor=#E1F5FE;align=left;verticalAlign=top;whiteSpace=wrap;rounded=1;fontSize=11;fontStyle=0;spacing=8;" vertex="1" parent="1">
          <mxGeometry x="950" y="580" width="200" height="200" as="geometry" />
        </mxCell>
      </root>
    </mxGraphModel>
  </diagram>
</mxfile>
